<svg width="150" height="120" viewBox="0 0 150 120" fill="none" xmlns="http://www.w3.org/2000/svg">
<path d="M129 66.5H75.5L97 101.5L129 66.5Z" fill="#6B50FD"/>
<path d="M1 57.5L14 43.5L32 57L29.5 83.5L1 57.5Z" fill="#329FFA"/>
<path d="M101 42.5C96.1667 29.6667 85.9 2.8 85.5 0L150 0.5L117.5 42.5H101Z" fill="#F38FFF"/>
<path d="M56 0H85.5L101 42.5H70.5L56 0Z" fill="#DD6EFB"/>
<path d="M41.5 14L56 0L70.5 42.5L61 43L41.5 14Z" fill="#B148FD"/>
<path d="M24.5 31.5L41.5 14L61 43L24.5 31.5Z" fill="#9540FF"/>
<path d="M52.5 56.5L24.5 31.5L61 43L52.5 56.5Z" fill="#6650FA"/>
<path d="M65 66.5L50.5 102L29.5056 83.5L30 59L14 43.5L24.5 31.5L65 66.5Z" fill="#2B85FF"/>
<path d="M69.5 120L50.5 102L65 66.5H76.5L97 101.5L75.5 120H69.5Z" fill="#254FF3"/>
</svg>
